<?xml version="1.0" encoding="utf-8"?>
<!-- Generator: Adobe Illustrator 24.2.2, SVG Export Plug-In . SVG Version: 6.00 Build 0)  -->
<svg version="1.1" id="Cart" xmlns="http://www.w3.org/2000/svg" xmlns:xlink="http://www.w3.org/1999/xlink" x="0px" y="0px"
	 viewBox="0 0 20 24" style="enable-background:new 0 0 20 24;" xml:space="preserve">
<style type="text/css">
	.st0{fill:none;}
</style>
<path id="Path_376" d="M19,6h-4.1c-0.5-2.1-2.2-3.7-4.4-4C7.9,1.8,5.6,3.5,5.1,6h-4L0,22h20L19,6z M9.8,4c1.3-0.1,2.5,0.8,3,2H7.2
	C7.6,4.9,8.6,4.1,9.8,4z M2.1,20L3,8h2v2c0,0.6,0.4,1,1,1s1-0.4,1-1V8H13v2c0,0.6,0.4,1,1,1s1-0.4,1-1V8h2l0.8,12H2.1z"/>
<rect id="Rectangle_232" y="0" class="st0" width="20" height="24"/>
</svg>
