<?xml version="1.0" encoding="utf-8"?>
<!-- Generator: Adobe Illustrator 24.2.2, SVG Export Plug-In . SVG Version: 6.00 Build 0)  -->
<svg version="1.1" id="Log-in" xmlns="http://www.w3.org/2000/svg" xmlns:xlink="http://www.w3.org/1999/xlink" x="0px" y="0px"
	 viewBox="0 0 20 24" style="enable-background:new 0 0 20 24;" xml:space="preserve">
<style type="text/css">
	.st0{fill:none;}
</style>
<path id="Path_381" d="M10,14c3.6,0,6.8,2.5,7.7,6H2.3C3.2,16.5,6.4,14,10,14 M10,12L10,12C4.5,12,0,16.5,0,22h20
	C20,16.5,15.5,12,10,12z"/>
<path id="Path_382" d="M10,4c1.4,0,2.5,1.1,2.5,2.5S11.4,9,10,9S7.5,7.9,7.5,6.5C7.5,5.1,8.6,4,10,4 M10,2C7.5,2,5.5,4,5.5,6.5
	S7.5,11,10,11s4.5-2,4.5-4.5S12.5,2,10,2L10,2z"/>
<rect id="Rectangle_235" y="0" class="st0" width="20" height="24"/>
</svg>
