<?xml version="1.0" encoding="utf-8"?>
<!-- Generator: Adobe Illustrator 24.2.2, SVG Export Plug-In . SVG Version: 6.00 Build 0)  -->
<svg version="1.1" id="LOGO_Wide_Desk_" xmlns="http://www.w3.org/2000/svg" xmlns:xlink="http://www.w3.org/1999/xlink" x="0px"
	 y="0px" viewBox="0 0 221 26.2" style="enable-background:new 0 0 221 26.2;" xml:space="preserve">
<style type="text/css">
	.st0{clip-path:url(#SVGID_2_);}
</style>
<g>
	<defs>
		<rect id="SVGID_1_" y="0" width="221" height="26"/>
	</defs>
	<clipPath id="SVGID_2_">
		<use xlink:href="#SVGID_1_"  style="overflow:visible;"/>
	</clipPath>
	<path id="Path_289" class="st0" d="M108.3,22.5l0.1,0.1L124,7.4V3.7l-17.1,16.8C107.3,21.2,107.8,21.9,108.3,22.5"/>
	<path id="Path_290" class="st0" d="M113.1,1.3L106,8.4V12l10.9-10.7H113.1z"/>
	<path id="Path_291" class="st0" d="M112.7,25L124,13.8v-3.7l-14,13.7C110.9,24.4,111.7,24.8,112.7,25"/>
	<path id="Path_292" class="st0" d="M121.6,22.5c1.5-1.6,2.4-3.6,2.4-5.8l-8.7,8.5C117.7,25.2,119.9,24.2,121.6,22.5"/>
	<path id="Path_293" class="st0" d="M119.8,1.3L106,14.9v1.4c0,0.7,0.1,1.4,0.2,2.1l17.3-17L119.8,1.3z"/>
	<path id="Path_294" class="st0" d="M106,1.3v4.2l4.3-4.2H106z"/>
	<path id="Path_295" class="st0" d="M151.1,5.7h5.3v19.4h4.6V5.7h5.3V1.4h-15.1V5.7z"/>
	<path id="Path_296" class="st0" d="M99,14.2l-0.5-0.6c-0.5-0.6-1.2-1.1-1.9-1.4c1-1.1,1.5-2.5,1.5-3.9c0-1-0.2-2-0.6-2.9
		c-0.4-0.9-0.9-1.7-1.7-2.4c-0.7-0.6-1.6-1.1-2.6-1.3c-1.2-0.3-2.5-0.4-3.8-0.4h-4.1v23.8h5.8c0.8,0,1.6,0,2.4-0.1
		c0.6-0.1,1.1-0.2,1.7-0.3c1.1-0.3,2-0.9,2.8-1.7c1.2-1.2,2-2.7,2.1-4.4c0-0.1,0-0.3,0-0.5c0-0.9-0.2-1.9-0.5-2.7
		C99.5,15,99.3,14.6,99,14.2 M90,5.6h0.7c0.8-0.1,1.6,0.2,2.3,0.7c0.5,0.5,0.8,1.3,0.7,2c0.1,0.8-0.2,1.5-0.7,2.1
		c-0.7,0.5-1.6,0.8-2.5,0.7H90L90,5.6z M90,20.8v-5.7h1.2c1.2-0.1,2.5,0.2,3.5,0.8c0.3,0.2,0.5,0.5,0.7,0.9c0.2,0.4,0.3,0.8,0.3,1.2
		c0,0.8-0.3,1.6-0.9,2.1c-0.9,0.6-2,0.9-3.1,0.8L90,20.8L90,20.8z"/>
	<path id="Path_297" class="st0" d="M144.2,13c1-1.3,1.6-2.9,1.5-4.5c0.1-2.1-0.8-4.1-2.4-5.4c-1.5-1.2-3.8-1.8-7-1.8h-4.6v23.8h4.6
		v-8.9l6.3,9h5.7l-7.3-9.9C142.3,14.8,143.4,14.1,144.2,13 M136.8,11.8h-0.5V5.7h0.7c3.8,0,4.2,1.7,4.2,2.9S140.7,11.8,136.8,11.8"
		/>
	<path id="Path_298" class="st0" d="M178,25.2c1.1,0.3,2.2,0.4,3.3,0.4h0.1l12.8-12.5c0-1.1-0.2-2.3-0.5-3.4L178,25.2z"/>
	<path id="Path_299" class="st0" d="M190.4,22c1.6-1.5,2.8-3.4,3.4-5.5l-8.8,8.7C187,24.5,188.9,23.5,190.4,22"/>
	<path id="Path_300" class="st0" d="M191.3,5.3l-17.9,17.6c0.7,0.6,1.5,1.1,2.4,1.5l17.1-16.8C192.4,6.8,191.9,6,191.3,5.3"/>
	<path id="Path_301" class="st0" d="M182.2,0.7L168.7,14c0.1,1.1,0.3,2.2,0.6,3.2l16.2-15.9C184.4,0.9,183.3,0.7,182.2,0.7"/>
	<path id="Path_302" class="st0" d="M172.4,4.3c-1.9,1.7-3.1,4-3.6,6.5L179,0.9C176.5,1.3,174.2,2.5,172.4,4.3"/>
	<path id="Path_303" class="st0" d="M187.5,2.2l-17.3,17.1c0.5,0.8,1,1.5,1.6,2.2l18-17.7C189.1,3.2,188.4,2.6,187.5,2.2"/>
	<path id="Path_304" class="st0" d="M220.8,1.1v24h-2l-14.8-15v15h-4.6v-24h2.1l14.7,15.2V1.1H220.8z"/>
	<g class="st0">
		<path id="Path_305" d="M59.9,3l-4.4,4.4l3.2-6.9h0L59.9,3z"/>
		<path id="Path_306" d="M62.8,9.5L46.9,25.2h3.7L64,12L62.8,9.5z"/>
		<path id="Path_307" d="M66.9,18.5l-6.7,6.6h3.7l4.2-4.1L66.9,18.5z"/>
		<path id="Path_308" d="M64.9,14L53.5,25.2h3.7l8.8-8.6L64.9,14z"/>
		<path id="Path_309" d="M60.8,5l-7.8,7.7l-3.2,6.9L61.9,7.5L60.8,5z"/>
		<path id="Path_310" d="M66.8,25.2H70L69,23L66.8,25.2z"/>
	</g>
	<path id="Path_288" class="st0" d="M21.1,0.4l-7.4,16.1L6.5,0.4H5.1L0.2,25.1H5l2.3-12.4l5.7,12.4h1.3l5.9-12.3l2,12.3h4.7
		L22.4,0.4H21.1z"/>
	<rect id="Rectangle_111" x="34.6" y="1.4" class="st0" width="4.6" height="23.8"/>
</g>
</svg>
