<?xml version="1.0" encoding="utf-8"?>
<!-- Generator: Adobe Illustrator 24.2.2, SVG Export Plug-In . SVG Version: 6.00 Build 0)  -->
<svg version="1.1" id="Search" xmlns="http://www.w3.org/2000/svg" xmlns:xlink="http://www.w3.org/1999/xlink" x="0px" y="0px"
	 viewBox="0 0 20 24" style="enable-background:new 0 0 20 24;" xml:space="preserve">
<style type="text/css">
	.st0{fill:none;}
</style>
<g id="Group_350" transform="translate(-473.969 -431.974)">
	<path id="Path_377" d="M482.2,436c3.4,0,6.2,2.8,6.2,6.2s-2.8,6.2-6.2,6.2s-6.2-2.8-6.2-6.2c0,0,0,0,0,0
		C476,438.8,478.7,436,482.2,436 M482.2,434c-4.5,0-8.2,3.7-8.2,8.2s3.7,8.2,8.2,8.2s8.2-3.7,8.2-8.2v0
		C490.4,437.6,486.7,434,482.2,434C482.2,434,482.2,434,482.2,434z"/>
	<g id="Group_349">
		
			<rect id="Rectangle_233" x="490" y="447.9" transform="matrix(0.7071 -0.7071 0.7071 0.7071 -175.1222 479.294)" width="2" height="6.3"/>
	</g>
</g>
<rect id="Rectangle_234" y="0" class="st0" width="20" height="24"/>
</svg>
