<?xml version="1.0" encoding="utf-8"?>
<!-- Generator: Adobe Illustrator 24.2.2, SVG Export Plug-In . SVG Version: 6.00 Build 0)  -->
<svg version="1.1" id="Shape_-_Aviator" xmlns="http://www.w3.org/2000/svg" xmlns:xlink="http://www.w3.org/1999/xlink" x="0px"
	 y="0px" viewBox="0 0 40 40" style="enable-background:new 0 0 40 40;" xml:space="preserve">
<style type="text/css">
	.st0{fill:none;}
</style>
<rect id="Rectangle_525" y="0" class="st0" width="40" height="40"/>
<path id="Path_668" d="M35.8,11H4.2C1.9,11,0,12.9,0,15.2v0v7.6C0,26.2,2.8,29,6.2,29l0,0C12.7,29,18,23.7,18,17.2V17h4v0.2
	C22,23.7,27.3,29,33.8,29c3.4,0,6.2-2.8,6.2-6.2l0,0v-7.6C40,12.9,38.1,11,35.8,11L35.8,11z M16,17.2c0,5.4-4.4,9.8-9.8,9.8
	C3.9,27,2,25.1,2,22.8v-7.6C2,14,3,13,4.2,13H16V17.2z M18,15v-2h4v2H18z M38,22.8c0,2.3-1.9,4.2-4.2,4.2c-5.4,0-9.8-4.4-9.8-9.8V13
	h11.8c1.2,0,2.2,1,2.2,2.2V22.8z"/>
</svg>
