<?xml version="1.0" encoding="utf-8"?>
<!-- Generator: Adobe Illustrator 24.2.2, SVG Export Plug-In . SVG Version: 6.00 Build 0)  -->
<svg version="1.1" id="Shape_-_Round" xmlns="http://www.w3.org/2000/svg" xmlns:xlink="http://www.w3.org/1999/xlink" x="0px"
	 y="0px" viewBox="0 0 40 40" style="enable-background:new 0 0 40 40;" xml:space="preserve">
<style type="text/css">
	.st0{fill:none;}
</style>
<rect id="Rectangle_520" y="0" class="st0" width="40" height="40"/>
<path d="M31.1,11.3c-3.7,0-6.8,2.2-8.2,5.4h-5.6c-1.4-3.2-4.6-5.4-8.2-5.4c-5,0-9,4-9,9c0,5,4,9,9,9s9-4,9-9c0-0.6-0.1-1.1-0.2-1.6
	h4.4c-0.1,0.5-0.2,1.1-0.2,1.6c0,5,4,9,9,9s9-4,9-9C40.1,15.3,36,11.3,31.1,11.3z M9,27.3c-3.9,0-7-3.1-7-7c0-3.9,3.1-7,7-7
	c3.9,0,7,3.1,7,7C16,24.2,12.9,27.3,9,27.3z M31.1,27.3c-3.9,0-7-3.1-7-7c0-3.9,3.1-7,7-7c3.9,0,7,3.1,7,7
	C38.1,24.2,34.9,27.3,31.1,27.3z"/>
</svg>
