<?xml version="1.0" encoding="utf-8"?>
<!-- Generator: Adobe Illustrator 24.2.2, SVG Export Plug-In . SVG Version: 6.00 Build 0)  -->
<svg version="1.1" id="Shape_-_Sport" xmlns="http://www.w3.org/2000/svg" xmlns:xlink="http://www.w3.org/1999/xlink" x="0px"
	 y="0px" viewBox="0 0 40 40" style="enable-background:new 0 0 40 40;" xml:space="preserve">
<style type="text/css">
	.st0{fill:none;}
</style>
<rect id="Rectangle_529" y="0" class="st0" width="40" height="40"/>
<path id="Path_672" d="M20,12.2c2.1,0,4.2,0.1,6.3,0.2L38,12.9v10.5l-12.9,3.2L23.2,23c-0.9-1.8-3.1-2.5-4.9-1.6
	c-0.7,0.4-1.3,0.9-1.6,1.6l-1.8,3.7L2,23.4V12.9l11.7-0.6C15.8,12.2,17.9,12.2,20,12.2 M20,10.2c-2.1,0-4.2,0.1-6.4,0.2L1.5,10.9
	C0.7,11,0,11.7,0,12.5v11.2c0,0.7,0.5,1.4,1.2,1.6l13.5,3.4c0.7,0.2,1.5-0.2,1.8-0.8l2-3.9c0.4-0.8,1.4-1.1,2.2-0.7
	c0.3,0.2,0.6,0.4,0.7,0.7l2,3.9c0.3,0.7,1.1,1,1.8,0.8l13.5-3.4c0.7-0.2,1.2-0.8,1.2-1.6V12.5c0-0.9-0.7-1.6-1.5-1.6l-12.1-0.6
	C24.3,10.2,22.1,10.2,20,10.2L20,10.2z"/>
</svg>
