<?xml version="1.0" encoding="utf-8"?>
<!-- Generator: Adobe Illustrator 24.2.2, SVG Export Plug-In . SVG Version: 6.00 Build 0)  -->
<svg version="1.1" id="Shape_-_Irregular" xmlns="http://www.w3.org/2000/svg" xmlns:xlink="http://www.w3.org/1999/xlink" x="0px"
	 y="0px" viewBox="0 0 40 40" style="enable-background:new 0 0 40 40;" xml:space="preserve">
<style type="text/css">
	.st0{fill:none;}
</style>
<rect id="Rectangle_528" y="0" class="st0" width="40" height="40"/>
<g id="Group_1622" transform="translate(0 21)">
</g>
<path d="M38.3,12.9c-1.1-0.9-2.5-1.5-4-1.5c-1.3,0-2.6,0.5-3.7,1.2c-1.1-0.8-2.4-1.2-3.8-1.2c-1.5,0-2.9,0.6-3.9,1.6
	c-1,0.8-1.5,2.1-1.6,3.4h-2.5c-0.1-1.3-0.7-2.6-1.7-3.5c-1.1-0.9-2.5-1.5-4-1.5c-1.3,0-2.6,0.5-3.7,1.2c-1.1-0.8-2.4-1.2-3.8-1.2
	c-1.5,0-2.9,0.6-3.9,1.6C0.6,13.9,0,15.4,0,16.9c0,1.6,0.7,3.1,1.9,4.3c1.1,1.3,2.4,2.5,3.8,3.7c0.8,0.8,1.6,1.4,2.4,2.3l1.3,1.2
	l1.4-1.2c0.8-0.8,1.7-1.6,2.4-2.3c1.3-1.1,2.5-2.4,3.8-3.7c0.7-0.8,1.2-1.8,1.5-2.8h2.9c0.3,1,0.8,2,1.7,2.8
	c1.1,1.3,2.4,2.5,3.8,3.7c0.8,0.8,1.6,1.4,2.4,2.3l1.3,1.2l1.4-1.2c0.8-0.8,1.7-1.6,2.4-2.3c1.3-1.1,2.5-2.4,3.8-3.7
	c1-1.1,1.7-2.7,1.8-4.3C40,15.4,39.3,13.9,38.3,12.9z M9.3,25.7c-4.3-4.1-7.4-6.1-7.4-8.9v-0.1c0.2-2,1.8-3.4,3.8-3.3
	c1.6,0,3,0.8,3.8,2.3c0.7-1.4,2.1-2.3,3.7-2.4h0.1c2,0,3.6,1.5,3.6,3.5C16.7,19.5,13.6,21.6,9.3,25.7z M30.5,25.7
	c-4.3-4.1-7.4-6.1-7.4-8.9v-0.1c0.2-2,1.8-3.4,3.8-3.3c1.6,0,3,0.8,3.8,2.3c0.7-1.4,2.1-2.3,3.7-2.4h0.1c2,0,3.6,1.5,3.6,3.5
	C37.9,19.5,34.8,21.6,30.5,25.7z"/>
</svg>
