<?xml version="1.0" encoding="utf-8"?>
<!-- Generator: Adobe Illustrator 24.2.2, SVG Export Plug-In . SVG Version: 6.00 Build 0)  -->
<svg version="1.1" id="shape_-_Mask" xmlns="http://www.w3.org/2000/svg" xmlns:xlink="http://www.w3.org/1999/xlink" x="0px"
	 y="0px" viewBox="0 0 40 40" style="enable-background:new 0 0 40 40;" xml:space="preserve">
<style type="text/css">
	.st0{fill:none;}
</style>
<path id="Path_664" d="M9.2,13c0.4,0,0.8,0.1,1.1,0.1l0.1,0l0.1,0l4.3,0.4c1.7,0.2,3.4,0.2,5.1,0.2s3.4-0.1,5.1-0.2l4.3-0.4l0.1,0
	l0.1,0c0.4-0.1,0.7-0.1,1.1-0.1H31c3.9,0,7,3.2,6.9,7.1c0,0,0,0.1,0,0.1c-0.2,3.8-3.3,6.7-7,6.8c-2.7,0-5.2-1.6-6.3-4.1
	c-1.2-2.5-4.1-3.6-6.7-2.5c-1.1,0.5-2,1.4-2.5,2.5c-1.1,2.5-3.6,4.1-6.4,4.1c-3.8-0.1-6.8-3-7-6.8C2,16.4,5,13.1,8.9,13
	C8.9,13,9,13,9,13H9.2 M31,11L31,11C31,11,30.9,11,31,11c-0.6,0-1.2,0.1-1.7,0.2L25,11.5c-1.7,0.2-3.3,0.2-5,0.2
	c-1.7,0-3.3-0.1-5-0.2l-4.3-0.4C10.2,11.1,9.6,11,9.1,11c0,0,0,0-0.1,0h0l0,0c-5,0-9,4.1-8.9,9.1c0,0.1,0,0.1,0,0.2
	c0.2,4.8,4.2,8.7,9,8.7h0c3.5,0,6.7-2.1,8.1-5.2c0.7-1.5,2.5-2.2,4-1.5c0.7,0.3,1.2,0.8,1.5,1.5c1.5,3.2,4.6,5.2,8.1,5.2h0
	c4.8,0,8.8-3.9,9-8.7c0.2-5-3.7-9.1-8.7-9.3C31.1,11,31.1,11,31,11L31,11z"/>
<rect id="Rectangle_521" y="0" class="st0" width="40" height="40"/>
</svg>
