<?xml version="1.0" encoding="utf-8"?>
<!-- Generator: Adobe Illustrator 24.2.2, SVG Export Plug-In . SVG Version: 6.00 Build 0)  -->
<svg version="1.1" id="Shape_-_Butterfly" xmlns="http://www.w3.org/2000/svg" xmlns:xlink="http://www.w3.org/1999/xlink" x="0px"
	 y="0px" viewBox="0 0 40 40" style="enable-background:new 0 0 40 40;" xml:space="preserve">
<style type="text/css">
	.st0{fill:none;}
</style>
<rect id="Rectangle_524" y="0" class="st0" width="40" height="40"/>
<path id="Path_667" d="M38.1,11.5H26.2c-2.2-0.1-4.1,1.5-4.2,3.7v1.2h-4v-1.2c-0.1-2.2-2-3.8-4.2-3.7H1.9c-1-0.1-1.8,0.7-1.9,1.7
	c0,0.2,0,0.3,0,0.5l2.2,8.8c1,3.4,4.2,5.7,7.8,5.6l0,0c4.4,0,8-3.2,8-7.1v-2.4h4v2.4c0,3.9,3.6,7.1,8,7.1l0,0
	c3.6,0.1,6.8-2.2,7.8-5.6l2.2-8.8c0.2-1-0.5-1.9-1.4-2.1C38.4,11.5,38.2,11.5,38.1,11.5z M16,20.9c0,2.8-2.7,5.1-6,5.1
	c-2.6,0.1-5-1.5-5.8-4.1l-2.1-8.4h11.7c1.1-0.1,2,0.7,2.2,1.7V20.9z M35.8,21.9C35,24.5,32.6,26.1,30,26c-3.3,0-6-2.3-6-5.1v-5.6
	c0.2-1.1,1.1-1.8,2.2-1.7h11.7L35.8,21.9z"/>
</svg>
