<?xml version="1.0" encoding="utf-8"?>
<!-- Generator: Adobe Illustrator 24.2.2, SVG Export Plug-In . SVG Version: 6.00 Build 0)  -->
<svg version="1.1" id="Shape_-_Oval" xmlns="http://www.w3.org/2000/svg" xmlns:xlink="http://www.w3.org/1999/xlink" x="0px"
	 y="0px" viewBox="0 0 40 40" style="enable-background:new 0 0 40 40;" xml:space="preserve">
<style type="text/css">
	.st0{fill:none;}
</style>
<rect id="Rectangle_523" y="0" class="st0" width="40" height="40"/>
<path id="Path_666" d="M33.1,12h-4.3c-2.9,0-5.4,1.8-6.4,4.5h-4.8c-1-2.7-3.6-4.5-6.4-4.5H6.9C3.1,12,0,15.1,0,18.9V19c0,5,4,9,9,9
	s9-4,9-9l0,0v-0.1c0-0.1,0-0.2,0-0.4h4c0,0.1,0,0.2,0,0.4V19c0,5,4,9,9,9s9-4,9-9l0,0v-0.1C40,15.1,36.9,12,33.1,12z M16,19
	c0,3.9-3.1,7-7,7s-7-3.1-7-7v-0.1C2,16.2,4.2,14,6.9,14h4.3c2.7,0,4.9,2.2,4.9,4.9V19z M38,19c0,3.9-3.1,7-7,7s-7-3.1-7-7v-0.1
	c0-2.7,2.2-4.9,4.9-4.9h4.3c2.7,0,4.9,2.2,4.9,4.9V19z"/>
</svg>
