<?xml version="1.0" encoding="utf-8"?>
<!-- Generator: Adobe Illustrator 24.2.2, SVG Export Plug-In . SVG Version: 6.00 Build 0)  -->
<svg version="1.1" id="Layer_1" xmlns="http://www.w3.org/2000/svg" xmlns:xlink="http://www.w3.org/1999/xlink" x="0px" y="0px"
	 viewBox="0 0 20 24" style="enable-background:new 0 0 20 24;" xml:space="preserve">
<style type="text/css">
	.st0{fill:none;}
	.st1{clip-path:url(#SVGID_2_);}
</style>
<g id="Wishlist" transform="translate(2 2)">
	<g id="rectangle">
		<rect x="-2" y="-2" class="st0" width="20" height="24"/>
	</g>
	<g id="Group_1622" transform="translate(0 21)">
		<g>
			<defs>
				<rect id="SVGID_1_" x="-2" y="-20" width="20" height="18"/>
			</defs>
			<clipPath id="SVGID_2_">
				<use xlink:href="#SVGID_1_"  style="overflow:visible;"/>
			</clipPath>
			<g id="Group_1623" class="st1">
				<g id="Group_1622-2" transform="translate(6.039 -18)">
					<path id="Path_708" d="M-2-2c1.4,0,2.8,0.5,4,1.3C3.1-1.5,4.5-2,5.9-2C7.5-2,9-1.4,10.2-0.4C11.3,0.7,12,2.2,12,3.8
						c-0.1,1.7-0.8,3.4-1.9,4.6c-1.3,1.4-2.6,2.7-4,3.9c-0.8,0.7-1.7,1.5-2.6,2.4L2,16l-1.4-1.3c-0.9-0.9-1.8-1.6-2.6-2.4
						c-1.4-1.2-2.8-2.5-4-3.9C-7.3,7.1-8,5.5-8,3.8c0-1.6,0.6-3.1,1.8-4.1C-5.1-1.4-3.6-2-2-2 M-2,0.1C-4.1,0-5.8,1.5-6,3.6
						c0,0,0,0.1,0,0.1c0,2.9,3.3,5.1,7.9,9.4c4.6-4.3,7.9-6.5,7.9-9.4c0-2.1-1.7-3.7-3.8-3.7c0,0-0.1,0-0.1,0C4.2,0.1,2.7,1,2,2.5
						C1.2,1-0.3,0.1-2,0.1"/>
				</g>
			</g>
		</g>
	</g>
</g>
</svg>
